# xmcd
#
# Track frame offsets:
#	150
#	11295
#	24753
#	36683
#	50584
#	62082
#	70303
#	92477
#	103503
#	115275
#	126989
#	139341
#	148547
#	155805
#	168786
#	177965
#
# Disc length: 2561 seconds
#
# Revision: 1
# Processed by: cddbd v1.5.2PL0 Copyright (c) Steve Scherf et al.
# Submitted via: audiograbber 1.83.01
#
DISCID=de09ff10
DTITLE=Variabel - That's Entertainment CD2
DYEAR=2009
DGENRE=Oldies
TTITLE0=Frank Sinatra - My Funny Valentine
TTITLE1=Dooley Wilson  - As Time goes by
TTITLE2=Dean Martin  - Sway
TTITLE3=Marlene Dietrich - Lilli Marlene
TTITLE4=Sammy Davis jr. - That old black Magic
TTITLE5=Larry Adler - Rififi Blues
TTITLE6=Louis Armstrong - Skokiaan
TTITLE7=Bing Crosby - Little one
TTITLE8=Johnny Ray - Just walkin' in the Rain
TTITLE9=Lean Simmons and Marlon Brando - A Woman in Love
TTITLE10=Judy Garland - Over the Rainbow
TTITLE11=Eddie Cantor - Yes Sir, that's my Baby
TTITLE12=Ray Anthony - Dragnet
TTITLE13=Frank Sinatra - You make me feel so young
TTITLE14=Doris Day - Whatever will be will be (Que Sera Sera)
TTITLE15=Glenn Miller - Star Dust
EXTD=
EXTT0=
EXTT1=
EXTT2=
EXTT3=
EXTT4=
EXTT5=
EXTT6=
EXTT7=
EXTT8=
EXTT9=
EXTT10=
EXTT11=
EXTT12=
EXTT13=
EXTT14=
EXTT15=
PLAYORDER=
